<svg width="88" height="32" viewBox="0 0 88 32" fill="none" xmlns="http://www.w3.org/2000/svg">
<path d="M4.43999 20.8655H9.35569V24.5499H0V4H9.35569V7.62084H4.43999V12.4486H9.03855V15.9424H4.43999V20.8655Z" fill="#018FDE"/>
<path d="M17.2201 19.468L14.8732 24.5499H10.4649L14.7781 16.2918L10.7504 9.05012H15.3806L17.2201 13.6873L19.0595 9.05012H23.6898L19.6621 16.2918L23.9752 24.5499H19.5669L17.2201 19.468Z" fill="#018FDE"/>
<path d="M33.1255 24.8675H32.4595C31.3812 24.8675 30.5144 24.6134 29.8589 24.1052V29.6H25.6092V9.05012H29.1929V10.1935C29.8484 9.21952 30.9372 8.73251 32.4595 8.73251H33.1255C35.7472 8.73251 37.0581 10.13 37.0581 12.9251V20.6749C37.0581 23.47 35.7472 24.8675 33.1255 24.8675ZM29.8589 12.4169V21.1831C29.8589 21.3525 29.9118 21.5007 30.0175 21.6278C30.1444 21.7548 30.2924 21.8184 30.4615 21.8184H32.2058C32.3749 21.8184 32.5124 21.7548 32.6181 21.6278C32.7449 21.5007 32.8083 21.3525 32.8083 21.1831V12.4169C32.8083 12.2475 32.7449 12.0993 32.6181 11.9722C32.5124 11.8452 32.3749 11.7816 32.2058 11.7816H30.4615C30.2924 11.7816 30.1444 11.8452 30.0175 11.9722C29.9118 12.0993 29.8589 12.2475 29.8589 12.4169Z" fill="#018FDE"/>
<path d="M46.5453 8.73251H47.3699V12.8615H45.2767C44.5579 12.8615 44.1985 13.2321 44.1985 13.9732V24.5499H39.9488V9.05012H43.8179V10.5429C44.431 9.33598 45.3402 8.73251 46.5453 8.73251Z" fill="#018FDE"/>
<path d="M56.7873 8.73251C59.409 8.73251 60.7198 10.13 60.7198 12.9251V17.9434H53.5207V21.1831C53.5207 21.3525 53.5736 21.5007 53.6793 21.6278C53.8061 21.7548 53.9541 21.8184 54.1233 21.8184H55.8676C56.0367 21.8184 56.1741 21.7548 56.2798 21.6278C56.4067 21.5007 56.4701 21.3525 56.4701 21.1831V19.468H60.7198V20.6749C60.7198 23.47 59.409 24.8675 56.7873 24.8675H53.2036C50.5819 24.8675 49.271 23.47 49.271 20.6749V12.9251C49.271 10.13 50.5819 8.73251 53.2036 8.73251H56.7873ZM53.5207 15.1484H56.4701V12.2898C56.4701 12.1204 56.4067 11.9722 56.2798 11.8452C56.1741 11.7181 56.0367 11.6546 55.8676 11.6546H54.1233C53.9541 11.6546 53.8061 11.7181 53.6793 11.8452C53.5736 11.9722 53.5207 12.1204 53.5207 12.2898V15.1484Z" fill="#018FDE"/>
<path d="M70.3473 14.8308C72.969 14.8308 74.2799 16.2283 74.2799 19.0233V20.6749C74.2799 23.47 72.969 24.8675 70.3473 24.8675H66.827C64.2053 24.8675 62.8945 23.47 62.8945 20.6749V19.6903H66.827V21.0878C66.827 21.2572 66.8799 21.4055 66.9856 21.5325C67.1125 21.6596 67.2605 21.7231 67.4296 21.7231H70.0302C70.1993 21.7231 70.3367 21.6596 70.4425 21.5325C70.5693 21.4055 70.6328 21.2572 70.6328 21.0878V19.1821C70.6328 19.0127 70.5693 18.8645 70.4425 18.7375C70.3367 18.6104 70.1993 18.5469 70.0302 18.5469H66.7636C64.1419 18.5469 62.831 17.1494 62.831 14.3543V12.9251C62.831 10.13 64.1419 8.73251 66.7636 8.73251H70.0936C72.7153 8.73251 74.0262 10.13 74.0262 12.9251V13.4968H70.0936V12.5122C70.0936 12.3428 70.0302 12.1945 69.9033 12.0675C69.7976 11.9404 69.6602 11.8769 69.491 11.8769H67.0808C66.9116 11.8769 66.7636 11.9404 66.6368 12.0675C66.5311 12.1945 66.4782 12.3428 66.4782 12.5122V14.1955C66.4782 14.3649 66.5311 14.5132 66.6368 14.6402C66.7636 14.7672 66.9116 14.8308 67.0808 14.8308H70.3473Z" fill="#018FDE"/>
<path d="M84.0674 14.8308C86.6891 14.8308 88 16.2283 88 19.0233V20.6749C88 23.47 86.6891 24.8675 84.0674 24.8675H80.5472C77.9255 24.8675 76.6146 23.47 76.6146 20.6749V19.6903H80.5472V21.0878C80.5472 21.2572 80.6 21.4055 80.7057 21.5325C80.8326 21.6596 80.9806 21.7231 81.1497 21.7231H83.7503C83.9194 21.7231 84.0569 21.6596 84.1626 21.5325C84.2894 21.4055 84.3529 21.2572 84.3529 21.0878V19.1821C84.3529 19.0127 84.2894 18.8645 84.1626 18.7375C84.0569 18.6104 83.9194 18.5469 83.7503 18.5469H80.4837C77.862 18.5469 76.5512 17.1494 76.5512 14.3543V12.9251C76.5512 10.13 77.862 8.73251 80.4837 8.73251H83.8137C86.4354 8.73251 87.7463 10.13 87.7463 12.9251V13.4968H83.8137V12.5122C83.8137 12.3428 83.7503 12.1945 83.6234 12.0675C83.5177 11.9404 83.3803 11.8769 83.2112 11.8769H80.8009C80.6317 11.8769 80.4837 11.9404 80.3569 12.0675C80.2512 12.1945 80.1983 12.3428 80.1983 12.5122V14.1955C80.1983 14.3649 80.2512 14.5132 80.3569 14.6402C80.4837 14.7672 80.6317 14.8308 80.8009 14.8308H84.0674Z" fill="#018FDE"/>
</svg>
